<?xml version="1.0" standalone="no"?>
<!DOCTYPE svg PUBLIC "-//W3C//DTD SVG 20010904//EN"
 "http://www.w3.org/TR/2001/REC-SVG-20010904/DTD/svg10.dtd">
<svg version="1.0" xmlns="http://www.w3.org/2000/svg"
 width="516.000000pt" height="516.000000pt" viewBox="0 0 516.000000 516.000000"
 preserveAspectRatio="xMidYMid meet">
<metadata>
Created by potrace 1.11, written by Peter Selinger 2001-2013
</metadata>
<g transform="translate(0.000000,516.000000) scale(0.100000,-0.100000)"
fill="#000000" stroke="none">
<path d="M2587 5154 c-1 -1 -40 -4 -87 -8 -80 -6 -113 -10 -185 -21 -16 -3
-32 -5 -35 -5 -3 0 -52 -13 -110 -28 -391 -106 -691 -323 -824 -597 -56 -115
-79 -213 -80 -339 l-1 -99 -50 -14 c-297 -84 -571 -305 -703 -568 -186 -371
-111 -812 191 -1118 136 -138 351 -264 527 -309 107 -28 110 -28 225 -43 46
-6 202 -7 257 -2 20 2 41 1 45 -2 5 -3 62 -100 127 -216 65 -115 132 -231 147
-258 16 -26 29 -49 29 -51 0 -2 16 -33 36 -68 44 -77 330 -602 389 -713 23
-44 70 -132 103 -195 147 -278 173 -328 199 -380 15 -30 36 -63 47 -72 46 -39
130 -51 190 -28 43 16 198 263 324 515 150 301 285 711 318 963 7 56 11 61 50
68 51 9 211 66 292 104 90 42 205 109 210 122 2 4 8 8 13 8 6 0 38 23 72 51
234 193 377 423 423 684 36 202 8 410 -81 602 -119 254 -330 461 -610 598 -55
27 -101 50 -103 51 -2 1 6 17 16 35 92 165 112 390 51 573 -90 268 -324 490
-664 631 -90 37 -259 85 -359 101 -21 3 -47 7 -57 9 -45 9 -325 25 -332 19z
m-494 -3097 c29 -45 169 -179 248 -237 162 -121 401 -228 592 -266 123 -24
233 -36 351 -37 l98 -1 -6 -46 c-3 -25 -9 -56 -12 -70 -3 -14 -8 -38 -11 -55
-19 -110 -128 -439 -190 -580 -43 -97 -183 -369 -196 -382 -9 -9 -24 12 -67
94 -30 59 -93 177 -139 262 -45 86 -103 194 -128 241 -25 47 -54 99 -63 115
-10 17 -33 59 -52 95 -31 57 -185 336 -263 475 -15 28 -72 128 -127 223 -54
95 -98 177 -98 182 0 20 48 10 63 -13z"/>
</g>
</svg>
