<svg id="Lager_1" data-name="Lager 1" xmlns="http://www.w3.org/2000/svg" viewBox="0 0 182.82 214.94"><defs><style>.cls-1{fill:#e5e153;}.cls-2{fill:#00ff12;}</style></defs><title>glass</title><path class="cls-1" d="M120,237A190.07,190.07,0,0,0,65.45,130.27C54.05,119.1,40.61,108.42,36.35,93l182.81,1.72c-37.95,44.46-61.49,99.81-99.79,144" transform="translate(-36.35 -23.79)"/><path class="cls-2" d="M49.74,92.86c-9.86-7.65-12.55-22.31-8.19-34s14.61-20.47,26-25.55,24-6.88,36.38-8.1c18-1.78,36.44-2.45,54.15,1.43S192.94,39.35,204,53.72a44.84,44.84,0,0,1,9.15,19.92c1.18,7.29-.06,15.1-4.22,21.2" transform="translate(-36.35 -23.79)"/></svg>