<svg id="Lager_1" data-name="Lager 1" xmlns="http://www.w3.org/2000/svg" viewBox="0 0 127.09 127.09"><defs><style>.cls-1{fill:#fff;}</style></defs><title>logo_glass</title><circle cx="63.55" cy="63.55" r="63.55"/><path class="cls-1" d="M61.11,66.57v-.48h1.37V54.59H61.11V54.1h8.32v.49H68.06v11.5h1.37v.48Z" transform="translate(-49.51 -2.91)"/><path class="cls-1" d="M79.56,64l.42.21A3.93,3.93,0,0,1,78,66.27a6.81,6.81,0,0,1-2.83.57,6.27,6.27,0,0,1-4-1.18,3.93,3.93,0,0,1-1.52-3.28A3.75,3.75,0,0,1,71.37,59,7,7,0,0,1,75,57.84h.4a5.42,5.42,0,0,1,3.47.84,2.7,2.7,0,0,1,1,1.87v.2a1.94,1.94,0,0,1-.56,1.45,2,2,0,0,1-1.47.55,1.92,1.92,0,0,1-1.35-.52,1.89,1.89,0,0,1-.22-2.47,3,3,0,0,1,1-.7l0,0a.13.13,0,0,0,.07,0l.12-.07a.12.12,0,0,0,0-.09.28.28,0,0,0-.19-.26,1.76,1.76,0,0,0-.4-.16l-.32,0-.22,0a1.88,1.88,0,0,0-1.66.75c-.35.5-.46,1.87-.34,4.13a.66.66,0,0,0,0,.14.76.76,0,0,1,0,.15,5.57,5.57,0,0,0,.4,1.82,1.57,1.57,0,0,0,1.63.84,2.83,2.83,0,0,0,1.86-.63A4.6,4.6,0,0,0,79.56,64Z" transform="translate(-49.51 -2.91)"/><path class="cls-1" d="M84.87,62.88v.76a4.6,4.6,0,0,0,.34,1.85c.23.49.77.74,1.61.74a3.33,3.33,0,0,0,1.87-.56,5,5,0,0,0,1.42-1.33l.34.22a5,5,0,0,1-1.94,1.74,6,6,0,0,1-2.59.54c-.4,0-.78,0-1.15,0a5.68,5.68,0,0,1-1.08-.19,1.89,1.89,0,0,1-.36-.1L83,66.38a4.62,4.62,0,0,1-1.88-1.47,4.11,4.11,0,0,1-.74-2.57A3.94,3.94,0,0,1,81.87,59a5.63,5.63,0,0,1,3.56-1.18,5.45,5.45,0,0,1,3.81,1.33,4.68,4.68,0,0,1,1.43,3.72Zm1.55-.43V59.34a1.79,1.79,0,0,0-.15-.75.65.65,0,0,0-.66-.33.55.55,0,0,0-.56.31,2.48,2.48,0,0,0-.18.7v3.18Z" transform="translate(-49.51 -2.91)"/><path class="cls-1" d="M108.6,58.26H108c0-.15-.1-.3-.17-.47l-.21-.5a6.55,6.55,0,0,0-1.21-1.8,2.47,2.47,0,0,0-1.87-.81,1.78,1.78,0,0,0-1.49.65c-.34.44-.5,1.65-.5,3.63v3.46a4.49,4.49,0,0,0,.63,2.89,2.1,2.1,0,0,0,1.56.65,2.84,2.84,0,0,0,2.33-1.08,5.46,5.46,0,0,0,1.15-2.37.15.15,0,0,1,0-.07v0l.56,0a4.62,4.62,0,0,1-1.69,3.33,5.65,5.65,0,0,1-3.6,1.13,6.8,6.8,0,0,1-4.87-1.78,6.32,6.32,0,0,1-1.88-4.8,6,6,0,0,1,1.92-4.58,6.46,6.46,0,0,1,4.63-1.83c.27,0,.5,0,.71,0a6.17,6.17,0,0,1,.62.11l.52.16.56.18.15.06.14.07.07,0,.09,0,.2.07a.61.61,0,0,0,.24,0,.41.41,0,0,0,.19,0,.56.56,0,0,0,.17-.09l.06,0s0,0,0,0h0l0,0,1-.58h.47Z" transform="translate(-49.51 -2.91)"/><path class="cls-1" d="M109.3,58.49v-.43c.43,0,.86,0,1.29,0l1.32-.06h.5l1-.06,1,0v1.8h0a3.5,3.5,0,0,1,1.19-1.28,3.09,3.09,0,0,1,1.7-.48,2.74,2.74,0,0,1,1.62.51,1.73,1.73,0,0,1,.71,1.49,2,2,0,0,1-2.11,2.1,2,2,0,0,1-1.45-.54,1.89,1.89,0,0,1-.57-1.44c0-.07,0-.14,0-.21l0-.22a.76.76,0,0,1,0-.21,1.18,1.18,0,0,0,0-.2.15.15,0,0,0-.08-.09.16.16,0,0,0-.1,0l-.11,0-.09.08-.14.16-.13.18a1.49,1.49,0,0,0-.14.24,1.22,1.22,0,0,0-.07.17,1.9,1.9,0,0,0-.11.39c0,.13,0,.25-.07.39s0,.33,0,.49v4.94H116v.43H109.3v-.43h1V58.49Z" transform="translate(-49.51 -2.91)"/><path class="cls-1" d="M124.17,62.88v.76a4.43,4.43,0,0,0,.34,1.85c.23.49.76.74,1.6.74a3.31,3.31,0,0,0,1.87-.56,5,5,0,0,0,1.42-1.33l.35.22a5,5,0,0,1-2,1.74,5.94,5.94,0,0,1-2.59.54c-.4,0-.78,0-1.14,0a5.79,5.79,0,0,1-1.09-.19,2.42,2.42,0,0,1-.36-.1l-.36-.13a4.58,4.58,0,0,1-1.89-1.47,4.17,4.17,0,0,1-.74-2.57A3.94,3.94,0,0,1,121.16,59a5.66,5.66,0,0,1,3.57-1.18,5.44,5.44,0,0,1,3.8,1.33A4.65,4.65,0,0,1,130,62.88Zm1.54-.43V59.34a1.79,1.79,0,0,0-.15-.75.65.65,0,0,0-.66-.33.54.54,0,0,0-.55.31,2,2,0,0,0-.18.7v3.18Z" transform="translate(-49.51 -2.91)"/><path class="cls-1" d="M136.53,59.39a1.28,1.28,0,0,0-.2-.83c-.13-.17-.4-.25-.82-.25h-.15a2.28,2.28,0,0,0-.39.06c-.12,0-.18.07-.18.14v0a.35.35,0,0,0,.11.18l.23.21a2.69,2.69,0,0,1,.21.35,1,1,0,0,1,.11.5,1.08,1.08,0,0,1-.5,1,3.26,3.26,0,0,1-1.51.43h-.61a.78.78,0,0,1-.22,0,2.27,2.27,0,0,1-1.05-.39,1.12,1.12,0,0,1-.48-1,1.71,1.71,0,0,1,0-.31,1.28,1.28,0,0,1,.09-.32,2.2,2.2,0,0,1,1.16-.92,8.54,8.54,0,0,1,3.2-.41h.74c.27,0,.56,0,.84.08a8.65,8.65,0,0,1,.89.1,7,7,0,0,1,.77.15,3.08,3.08,0,0,1,1.42.66,1.9,1.9,0,0,1,.52,1.48v4.9a.92.92,0,0,0,.09.25.25.25,0,0,0,.22.11.56.56,0,0,0,.35-.11l.28-.24s0,0,0,0h0a.33.33,0,0,1,0-.06l0,0v.61a3,3,0,0,1-1,.75,4.7,4.7,0,0,1-1.2.35l-.3,0H139a3.56,3.56,0,0,1-1.36-.23,1.87,1.87,0,0,1-.94-1,3.15,3.15,0,0,1-1.46.94,7.27,7.27,0,0,1-1.73.28H133a3.71,3.71,0,0,1-1.79-.54,1.74,1.74,0,0,1-.82-1.64v-.15a2.58,2.58,0,0,1,.68-1.6,3.83,3.83,0,0,1,2.47-1l.54-.07.48,0c.17,0,.34,0,.52,0h1.46Zm0,4.59v-1.8h-.65a.8.8,0,0,0-.79.46,2.56,2.56,0,0,0-.18,1v1c0,.09,0,.18,0,.28a1.57,1.57,0,0,0,.15.61.52.52,0,0,0,.52.29.72.72,0,0,0,.7-.35,2,2,0,0,0,.21-.78,1.46,1.46,0,0,0,0-.29V64Z" transform="translate(-49.51 -2.91)"/><path class="cls-1" d="M141.91,58.49v-.43c.41,0,.82,0,1.24,0l1.23-.06h.49l1-.06,1,0V59.7a5.68,5.68,0,0,1,1.36-1.32,3.06,3.06,0,0,1,1.8-.55,3.12,3.12,0,0,1,1.62.43,2,2,0,0,1,.92,1.37,4.29,4.29,0,0,1,1.12-1.13,3.46,3.46,0,0,1,1.46-.62,1,1,0,0,1,.25,0h.25a2.56,2.56,0,0,1,2.18.82,4.81,4.81,0,0,1,.61,2.78v4.71h1v.43H153.7v-.43h.54V60.62a1.1,1.1,0,0,0,0-.25v-.24a2,2,0,0,0-.13-.66.47.47,0,0,0-.48-.29.72.72,0,0,0-.63.48,2.72,2.72,0,0,0-.27,1.06v5.42h.54v.43H148v-.43h.54V60.65a6.19,6.19,0,0,0-.07-1,.45.45,0,0,0-.48-.42.7.7,0,0,0-.62.39,2.62,2.62,0,0,0-.3.88.92.92,0,0,1,0,.16.76.76,0,0,0,0,.15v5.38h.49v.43h-5.66v-.43h1V58.49Z" transform="translate(-49.51 -2.91)"/><path class="cls-1" d="M84.43,75.26h-.57c0-.15-.11-.3-.17-.47l-.21-.5a6.58,6.58,0,0,0-1.22-1.8,2.46,2.46,0,0,0-1.86-.81,1.77,1.77,0,0,0-1.49.65Q78.4,73,78.4,76v3.46A4.49,4.49,0,0,0,79,82.31,2.1,2.1,0,0,0,80.6,83a2.84,2.84,0,0,0,2.33-1.08,5.55,5.55,0,0,0,1.14-2.37.15.15,0,0,1,0-.07.06.06,0,0,0,0,0l.56,0A4.66,4.66,0,0,1,83,82.71a5.69,5.69,0,0,1-3.6,1.13,6.76,6.76,0,0,1-4.87-1.78,6.28,6.28,0,0,1-1.88-4.8,6.07,6.07,0,0,1,1.91-4.58,6.49,6.49,0,0,1,4.64-1.83c.26,0,.5,0,.71,0a6.17,6.17,0,0,1,.62.11l.51.16.57.18a.59.59,0,0,1,.14.06l.15.07.07,0,.09,0,.2.07a.59.59,0,0,0,.23,0,.45.45,0,0,0,.2,0,.51.51,0,0,0,.16-.09l.07,0,0,0h0l0,0,1-.58h.47Z" transform="translate(-49.51 -2.91)"/><path class="cls-1" d="M85.48,75.49v-.43c.43,0,.86,0,1.29,0L88.09,75h.5l1-.06,1.05,0v1.8h0a3.44,3.44,0,0,1,1.2-1.28,3.09,3.09,0,0,1,1.7-.48,2.68,2.68,0,0,1,1.61.51,1.71,1.71,0,0,1,.71,1.49,2,2,0,0,1-2.1,2.1,2,2,0,0,1-1.45-.54A1.89,1.89,0,0,1,91.81,77a1.48,1.48,0,0,1,0-.21l0-.22a1.49,1.49,0,0,1,0-.21,1.17,1.17,0,0,0,0-.2.15.15,0,0,0-.08-.09.16.16,0,0,0-.1,0,.23.23,0,0,0-.11,0l-.09.08a1.14,1.14,0,0,0-.14.16l-.13.18a1,1,0,0,0-.14.24,1.22,1.22,0,0,0-.07.17,1.9,1.9,0,0,0-.11.39c0,.13,0,.25-.07.39a4,4,0,0,0,0,.49v4.94h1.28v.43H85.48v-.43h1V75.49Z" transform="translate(-49.51 -2.91)"/><path class="cls-1" d="M100.69,79.88v.76a4.43,4.43,0,0,0,.34,1.85c.23.49.76.74,1.6.74a3.31,3.31,0,0,0,1.87-.56,5,5,0,0,0,1.42-1.33l.35.22a5,5,0,0,1-2,1.74,5.94,5.94,0,0,1-2.59.54c-.4,0-.78,0-1.14,0a5.79,5.79,0,0,1-1.09-.19,2.42,2.42,0,0,1-.36-.1l-.36-.13a4.58,4.58,0,0,1-1.89-1.47,4.17,4.17,0,0,1-.74-2.57A3.94,3.94,0,0,1,97.68,76a5.65,5.65,0,0,1,3.56-1.18,5.45,5.45,0,0,1,3.81,1.33,4.65,4.65,0,0,1,1.43,3.72Zm1.54-.43V76.34a1.79,1.79,0,0,0-.15-.75.65.65,0,0,0-.66-.33.54.54,0,0,0-.55.31,2,2,0,0,0-.18.7v3.18Z" transform="translate(-49.51 -2.91)"/><path class="cls-1" d="M113.39,76.39a1.35,1.35,0,0,0-.19-.83,1,1,0,0,0-.83-.25h-.15a2.28,2.28,0,0,0-.39.06c-.12,0-.18.07-.18.14v0a.32.32,0,0,0,.12.18l.22.21c.07.1.14.21.22.35a1.26,1.26,0,0,1-.4,1.5,3.26,3.26,0,0,1-1.51.43h-.61a.83.83,0,0,1-.22,0,2.31,2.31,0,0,1-1-.39,1.12,1.12,0,0,1-.48-1,1.71,1.71,0,0,1,0-.31,1,1,0,0,1,.1-.32,2.17,2.17,0,0,1,1.15-.92,8.54,8.54,0,0,1,3.2-.41h.74c.28,0,.56,0,.85.08a8.46,8.46,0,0,1,.88.1,6.58,6.58,0,0,1,.77.15,3,3,0,0,1,1.42.66,1.91,1.91,0,0,1,.53,1.48v4.9a.54.54,0,0,0,.09.25.24.24,0,0,0,.21.11.54.54,0,0,0,.35-.11,3,3,0,0,0,.28-.24s0,0,0,0h0l0-.06,0,0v.61a3,3,0,0,1-1,.75,4.7,4.7,0,0,1-1.2.35l-.3,0h-.31a3.59,3.59,0,0,1-1.36-.23,1.87,1.87,0,0,1-.94-1,3.15,3.15,0,0,1-1.46.94,7.19,7.19,0,0,1-1.73.28h-.5a3.71,3.71,0,0,1-1.79-.54,1.74,1.74,0,0,1-.82-1.64v-.15a2.58,2.58,0,0,1,.68-1.6,3.85,3.85,0,0,1,2.47-1l.54-.07.48,0c.17,0,.35,0,.53,0h1.45Zm0,4.59v-1.8h-.64a.8.8,0,0,0-.8.46,2.56,2.56,0,0,0-.18,1v1c0,.09,0,.18,0,.28a1.57,1.57,0,0,0,.15.61.54.54,0,0,0,.52.29.71.71,0,0,0,.7-.35,2.2,2.2,0,0,0,.22-.78c0-.1,0-.2,0-.29V81Z" transform="translate(-49.51 -2.91)"/><path class="cls-1" d="M124.07,71.89h.34v3.17h2v.43h-2V82.1a1.23,1.23,0,0,0,.09.47.4.4,0,0,0,.41.21.85.85,0,0,0,.73-.39,3.08,3.08,0,0,0,.44-.89c0-.15.09-.31.13-.47a2.72,2.72,0,0,0,.07-.43h.4a3.14,3.14,0,0,1-1.17,2.58,5.1,5.1,0,0,1-2.79.67,3,3,0,0,1-2.18-.59,3.63,3.63,0,0,1-.54-2.34V75.49h-1.06v-.43a5.05,5.05,0,0,0,3-.88,7.64,7.64,0,0,0,2.15-2.27Z" transform="translate(-49.51 -2.91)"/><path class="cls-1" d="M132.83,74.81l.18,0h.18a8.11,8.11,0,0,1,1.84.28,5.46,5.46,0,0,1,1.6.74,4.29,4.29,0,0,1,1.23,1.34,4,4,0,0,1,.55,1.72,1.11,1.11,0,0,1,0,.17v.16a4.47,4.47,0,0,1-.42,1.91,4.36,4.36,0,0,1-1.2,1.56,4.14,4.14,0,0,1-1.56.81,8.82,8.82,0,0,1-1.86.31h-1.11a8.82,8.82,0,0,1-1.86-.31,4.14,4.14,0,0,1-1.56-.81,4.36,4.36,0,0,1-1.2-1.56,4.47,4.47,0,0,1-.42-1.91v-.16a1,1,0,0,1,0-.17A4.27,4.27,0,0,1,129,75.85a5.35,5.35,0,0,1,1.6-.74,8.11,8.11,0,0,1,1.83-.28h.36Zm-.9,1.8v5.45a4,4,0,0,0,.11,1c.07.27.34.41.79.41s.7-.12.77-.35a2.92,2.92,0,0,0,.08-.82V76.37a2.33,2.33,0,0,0-.15-.76c-.09-.23-.32-.35-.7-.35a.72.72,0,0,0-.72.35,2.12,2.12,0,0,0-.18.76v.24Z" transform="translate(-49.51 -2.91)"/><path class="cls-1" d="M139.15,75.49v-.43c.43,0,.87,0,1.3,0l1.31-.06h.51l1-.06,1,0v1.8h0a3.44,3.44,0,0,1,1.2-1.28,3,3,0,0,1,1.7-.48,2.71,2.71,0,0,1,1.61.51,1.73,1.73,0,0,1,.71,1.49,2.07,2.07,0,0,1-.59,1.52,2.25,2.25,0,0,1-3,0,1.92,1.92,0,0,1-.56-1.44,1.48,1.48,0,0,1,0-.21,1.5,1.5,0,0,1,0-.22.76.76,0,0,1,0-.21,1.18,1.18,0,0,0,0-.2.15.15,0,0,0-.08-.09.15.15,0,0,0-.09,0,.2.2,0,0,0-.11,0,.36.36,0,0,0-.09.08,1.17,1.17,0,0,0-.15.16,1.88,1.88,0,0,0-.12.18,1.58,1.58,0,0,0-.15.24l-.07.17a2.85,2.85,0,0,0-.11.39c0,.13,0,.25-.07.39s0,.33,0,.49v4.94h1.28v.43h-6.66v-.43h1V75.49Z" transform="translate(-49.51 -2.91)"/><path class="cls-1" d="M151.09,79.69h.07a3.15,3.15,0,0,1,1.71.52,1.74,1.74,0,0,1,.77,1.56,1.71,1.71,0,0,1-.81,1.59,3.42,3.42,0,0,1-1.78.48H151a3.45,3.45,0,0,1-1.76-.49,1.71,1.71,0,0,1-.8-1.58,1.75,1.75,0,0,1,.8-1.59,3.37,3.37,0,0,1,1.76-.51h.05Z" transform="translate(-49.51 -2.91)"/></svg>