<svg id="Lager_1" data-name="Lager 1" xmlns="http://www.w3.org/2000/svg" viewBox="0 0 233 394.93"><defs><style>.cls-1{fill:#d622fc;}.cls-2{fill:#00ff12;}.cls-3{fill:#d3ac2f;}</style></defs><title>logo</title><ellipse class="cls-1" cx="63.5" cy="161.5" rx="63.5" ry="80.5"/><ellipse class="cls-2" cx="120.5" cy="75.5" rx="74.5" ry="75.5"/><ellipse class="cls-3" cx="155.5" cy="187.5" rx="77.5" ry="91.5"/><path d="M338.44,277.21q45.26,107,84.64,216.26c2,5.5,10.67,8.08,13.7,1.79,28.4-58.93,40-125.33,32.53-190.38-.46-4-3.11-7.5-7.5-7.5-3.69,0-8,3.45-7.5,7.5a334.26,334.26,0,0,1-30.48,182.81l13.71,1.79q-40.08-111.08-86.15-219.85c-1.59-3.75-7.06-4.5-10.26-2.69-3.88,2.22-4.26,6.56-2.69,10.27Z" transform="translate(-294 -104)"/></svg>